<svg height="512" viewBox="0 0 64 64" width="512" xmlns="http://www.w3.org/2000/svg"><g id="Car-7" data-name="Car"><circle cx="15" cy="44" fill="#57565c" r="6"/><circle cx="49" cy="44" fill="#57565c" r="6"/><path d="m15 38a6 6 0 0 0 -6 6h-4a2.006 2.006 0 0 1 -2-2v-11.23a2.007 2.007 0 0 1 1.75-1.99l6.25-.78 5.89-11.79a4.02 4.02 0 0 1 3.58-2.21h18.21a4 4 0 0 1 3.47 2.02l1.13 1.98h-22.54a.987.987 0 0 0 -.95.71l-2.4 8a1 1 0 0 0 .95 1.29h14.66v16h-12a6 6 0 0 0 -6-6z" fill="#ffd422"/><path d="m61 40v2a2.006 2.006 0 0 1 -2 2h-4a6 6 0 0 0 -12 0h-10v-16h16l10.33 1.72a2.006 2.006 0 0 1 1.67 1.97v.31h-5a1 1 0 0 0 -1 1v2a1 1 0 0 0 1 1h5z" fill="#ffde55"/><path d="m33 18v10h-14.66a1 1 0 0 1 -.95-1.29l2.4-8a.987.987 0 0 1 .95-.71z" fill="#d1d3d4"/><path d="m61 32v4h-5a1 1 0 0 1 -1-1v-2a1 1 0 0 1 1-1z" fill="#e6e7e8"/><path d="m43.28 18 5.72 10h-16v-10z" fill="#e6e7e8"/><path d="m59.493 28.735-9.86-1.643-6.613-11.572a5.009 5.009 0 0 0 -4.341-2.52h-18.207a4.973 4.973 0 0 0 -4.472 2.764l-5.655 11.31-5.717.715a3 3 0 0 0 -2.628 2.977v11.234a3 3 0 0 0 3 3h3.08a6.991 6.991 0 0 0 13.84 0h20.16a6.991 6.991 0 0 0 13.84 0h3.08a3 3 0 0 0 3-3v-10.306a2.991 2.991 0 0 0 -2.507-2.959zm-25.493-9.735h8.7l4.572 8h-13.272zm-2 8h-13.652l2.392-8h11.26zm-28 15v-1h3v-2h-3v-8.234a1 1 0 0 1 .876-.993l6.248-.781a1 1 0 0 0 .771-.545l5.894-11.789a2.983 2.983 0 0 1 2.683-1.658h18.207a3 3 0 0 1 2.6 1.512l.279.488h-20.818a1.99 1.99 0 0 0 -1.908 1.422l-2.4 7.991a1.994 1.994 0 0 0 1.908 2.587h13.66v14h-10.08a6.991 6.991 0 0 0 -13.84 0h-3.08a1 1 0 0 1 -1-1zm11 7a5 5 0 1 1 5-5 5.006 5.006 0 0 1 -5 5zm34 0a5 5 0 1 1 5-5 5.006 5.006 0 0 1 -5 5zm10-6h-3.08a6.991 6.991 0 0 0 -13.84 0h-8.08v-14h14.918l10.247 1.708a.989.989 0 0 1 .542.292h-3.707a2 2 0 0 0 -2 2v2a2 2 0 0 0 2 2h4v2h-3v2h3v1a1 1 0 0 1 -1 1zm1-10v2h-4v-2z"/><path d="m36 31h4v2h-4z"/><path d="m19 31h4v2h-4z"/><path d="m14 43h2v2h-2z"/><path d="m48 43h2v2h-2z"/></g></svg>