<svg height="512pt" viewBox="-21 0 512 512" width="512pt" xmlns="http://www.w3.org/2000/svg"><path d="m33.816406 294.128906h403.59375v197.320313h-403.59375zm0 0" fill="#e7e7e7"/><path d="m79.570312 392.382812v-98.253906h-45.753906v197.320313h403.59375v-46.402344h-305.171875c-29.085937.003906-52.667969-23.578125-52.667969-52.664063zm0 0" fill="#dbdbdb"/><g fill="#3dcff3"><path d="m411.300781 350.121094v25.132812c0 .898438-.730469 1.640625-1.628906 1.640625h-25.132813c-.910156 0-1.640624-.742187-1.640624-1.640625v-25.132812c0-.910156.730468-1.640625 1.640624-1.640625h25.132813c.898437 0 1.628906.730469 1.628906 1.640625zm0 0"/><path d="m411.300781 406.789062v25.144532c0 .898437-.730469 1.628906-1.628906 1.628906h-25.132813c-.910156 0-1.640624-.730469-1.640624-1.628906v-25.144532c0-.898437.730468-1.628906 1.640624-1.628906h25.132813c.898437 0 1.628906.730469 1.628906 1.628906zm0 0"/><path d="m357.023438 406.789062v25.144532c0 .898437-.730469 1.628906-1.628907 1.628906h-25.144531c-.898438 0-1.628906-.730469-1.628906-1.628906v-25.144532c0-.898437.730468-1.628906 1.628906-1.628906h25.144531c.898438 0 1.628907.730469 1.628907 1.628906zm0 0"/></g><path d="m357.023438 350.121094v25.132812c0 .898438-.730469 1.640625-1.628907 1.640625h-25.144531c-.898438 0-1.628906-.742187-1.628906-1.640625v-25.132812c0-.910156.730468-1.640625 1.628906-1.640625h25.144531c.898438 0 1.628907.730469 1.628907 1.640625zm0 0" fill="#abeaf8"/><path d="m88.328125 406.789062v25.144532c0 .898437-.730469 1.628906-1.640625 1.628906h-25.132812c-.898438 0-1.628907-.730469-1.628907-1.628906v-25.144532c0-.898437.730469-1.628906 1.628907-1.628906h25.132812c.910156 0 1.640625.730469 1.640625 1.628906zm0 0" fill="#abeaf8"/><path d="m142.605469 406.789062v25.144532c0 .898437-.730469 1.628906-1.628907 1.628906h-25.144531c-.898437 0-1.628906-.730469-1.628906-1.628906v-25.144532c0-.898437.730469-1.628906 1.628906-1.628906h25.144531c.898438 0 1.628907.730469 1.628907 1.628906zm0 0" fill="#3dcff3"/><path d="m142.605469 350.121094v25.132812c0 .898438-.730469 1.640625-1.628907 1.640625h-25.144531c-.898437 0-1.628906-.742187-1.628906-1.640625v-25.132812c0-.910156.730469-1.640625 1.628906-1.640625h25.144531c.898438 0 1.628907.730469 1.628907 1.640625zm0 0" fill="#3dcff3"/><path d="m88.328125 350.121094v25.132812c0 .898438-.730469 1.640625-1.640625 1.640625h-25.132812c-.898438 0-1.628907-.742187-1.628907-1.640625v-25.132812c0-.910156.730469-1.640625 1.628907-1.640625h25.132812c.910156 0 1.640625.730469 1.640625 1.640625zm0 0" fill="#3dcff3"/><path d="m252.265625 465.175781c0 4.097657-3.320313 7.421875-7.417969 7.421875-4.101562 0-7.421875-3.324218-7.421875-7.421875 0-4.097656 3.320313-7.417969 7.421875-7.417969 4.097656 0 7.417969 3.320313 7.417969 7.417969zm0 0" fill="#7e4335"/><path d="m446.699219 264.175781 15.0625 52.195313c.984375 3.40625-1.574219 6.804687-5.121094 6.804687h-163.617187v-67.203125h142.769531c5.054687 0 9.503906 3.34375 10.90625 8.203125zm0 0" fill="#f64446"/><path d="m456.078125 296.675781h-163.054687v26.5h163.617187c3.546875 0 6.105469-3.398437 5.121094-6.804687zm0 0" fill="#e01e31"/><path d="m179.203125 255.972656v67.203125h-167.0625c-2.324219 0-4-2.226562-3.355469-4.457031l15.742188-54.542969c1.402344-4.859375 5.851562-8.203125 10.90625-8.203125zm0 0" fill="#f64446"/><path d="m93.332031 299.785156c-22.824219 0-39.285156-21.878906-32.953125-43.8125h-24.945312c-5.054688 0-9.503906 3.34375-10.90625 8.203125l-15.742188 54.542969c-.644531 2.230469 1.03125 4.457031 3.355469 4.457031h167.0625v-23.390625zm0 0" fill="#e01e31"/><path d="m448.28125 504.5h-426.601562c-3.746094 0-6.785157-3.039062-6.785157-6.789062v-12.519532c0-3.75 3.039063-6.789062 6.785157-6.789062h426.601562c3.75 0 6.785156 3.039062 6.785156 6.789062v12.519532c0 3.75-3.035156 6.789062-6.785156 6.789062zm0 0" fill="#6285a4"/><path d="m45.242188 491.449219c-3.75 0-6.785157-3.035157-6.785157-6.785157v-6.261718h-16.777343c-3.746094 0-6.785157 3.039062-6.785157 6.789062v12.519532c0 3.75 3.039063 6.789062 6.785157 6.789062h426.601562c3.75 0 6.785156-3.039062 6.785156-6.789062v-6.261719zm0 0" fill="#46738e"/><path d="m169.199219 183.679688v320.820312h132.828125v-320.820312zm0 0" fill="#acacac"/><path d="m221.902344 417.042969v-233.363281h-52.703125v320.820312h132.828125v-59.152344h-51.816406c-15.636719 0-28.308594-12.671875-28.308594-28.304687zm0 0" fill="#989a9b"/><path d="m277.683594 357.65625v21.558594c0 2.0625-1.671875 3.722656-3.722656 3.722656h-21.558594c-2.0625 0-3.722656-1.660156-3.722656-3.722656v-21.558594c0-2.054688 1.660156-3.722656 3.722656-3.722656h21.558594c2.050781 0 3.722656 1.667968 3.722656 3.722656zm0 0" fill="#3dcff3"/><path d="m223.546875 357.65625v21.558594c0 2.0625-1.660156 3.722656-3.722656 3.722656h-21.558594c-2.050781 0-3.722656-1.660156-3.722656-3.722656v-21.558594c0-2.054688 1.671875-3.722656 3.722656-3.722656h21.558594c2.0625 0 3.722656 1.667968 3.722656 3.722656zm0 0" fill="#abeaf8"/><path d="m223.546875 301.425781v21.5625c0 2.050781-1.660156 3.722657-3.722656 3.722657h-21.558594c-2.050781 0-3.722656-1.671876-3.722656-3.722657v-21.5625c0-2.058593 1.671875-3.722656 3.722656-3.722656h21.558594c2.0625 0 3.722656 1.664063 3.722656 3.722656zm0 0" fill="#3dcff3"/><path d="m277.683594 301.425781v21.5625c0 2.050781-1.671875 3.722657-3.722656 3.722657h-21.558594c-2.0625 0-3.722656-1.671876-3.722656-3.722657v-21.5625c0-2.058593 1.660156-3.722656 3.722656-3.722656h21.558594c2.050781 0 3.722656 1.664063 3.722656 3.722656zm0 0" fill="#abeaf8"/><path d="m277.683594 245.1875v21.570312c0 2.050782-1.671875 3.714844-3.722656 3.714844h-21.558594c-2.0625 0-3.722656-1.664062-3.722656-3.714844v-21.570312c0-2.050781 1.660156-3.710938 3.722656-3.710938h21.558594c2.050781 0 3.722656 1.660157 3.722656 3.710938zm0 0" fill="#3dcff3"/><path d="m223.546875 245.1875v21.570312c0 2.050782-1.660156 3.714844-3.722656 3.714844h-21.558594c-2.050781 0-3.722656-1.664062-3.722656-3.714844v-21.570312c0-2.050781 1.671875-3.710938 3.722656-3.710938h21.558594c2.0625 0 3.722656 1.660157 3.722656 3.710938zm0 0" fill="#abeaf8"/><path d="m153.875 198.394531h163.476562c2.570313 0 4.648438-2.078125 4.648438-4.648437v-20.136719c0-2.566406-2.078125-4.648437-4.648438-4.648437h-163.476562c-2.566406 0-4.648438 2.082031-4.648438 4.648437v20.136719c0 2.570312 2.082032 4.648437 4.648438 4.648437zm0 0" fill="#f64446"/><path d="m190.390625 183.679688c-2.566406 0-4.648437-2.082032-4.648437-4.648438v-10.070312h-31.867188c-2.566406 0-4.648438 2.082031-4.648438 4.648437v20.140625c0 2.566406 2.082032 4.648438 4.648438 4.648438h163.476562c2.566407 0 4.648438-2.082032 4.648438-4.648438v-10.070312zm0 0" fill="#e01e31"/><path d="m235.613281 7.5c-48.0625 0-87.035156 38.96875-87.035156 87.042969 0 42.199219 67.085937 101.484375 83.460937 115.328125 2.066407 1.746094 5.082032 1.746094 7.148438 0 16.375-13.84375 83.460938-73.128906 83.460938-115.328125 0-48.074219-38.972657-87.042969-87.035157-87.042969zm.5 139.648438c-29.875 0-54.09375-24.21875-54.09375-54.09375s24.21875-54.09375 54.09375-54.09375 54.09375 24.21875 54.09375 54.09375c0 29.878906-24.21875 54.09375-54.09375 54.09375zm0 0" fill="#fed974"/><path d="m237.953125 147.105469c-.613281.019531-1.222656.046875-1.839844.046875-29.875 0-54.09375-24.21875-54.09375-54.09375 0-29.511719 23.632813-53.488282 53.003907-54.070313 9-10.839843 20.578124-19.460937 33.796874-24.921875-10.234374-4.226562-21.449218-6.566406-33.207031-6.566406-48.0625 0-87.035156 38.96875-87.035156 87.042969 0 42.199219 67.085937 101.488281 83.460937 115.328125 2.066407 1.746094 5.082032 1.746094 7.148438 0 5.5625-4.703125 16.980469-14.65625 29.632812-27.398438-10.304687-10.378906-21.421874-22.609375-30.867187-35.367187zm0 0" fill="#fcc53a"/><path d="m293.742188 77.644531v30.816407c0 1.539062-1.25 2.78125-2.78125 2.78125h-36.660157v36.65625c0 1.542968-1.238281 2.78125-2.78125 2.78125h-30.8125c-1.542969 0-2.78125-1.238282-2.78125-2.78125v-36.65625h-36.660156c-1.53125 0-2.78125-1.242188-2.78125-2.78125v-30.816407c0-1.53125 1.25-2.78125 2.78125-2.78125h36.660156v-36.648437c0-1.542969 1.238281-2.78125 2.78125-2.78125h30.8125c1.542969 0 2.78125 1.238281 2.78125 2.78125v36.648437h36.660157c1.53125 0 2.78125 1.25 2.78125 2.78125zm0 0" fill="#f64446"/><path d="m264.175781 437.34375v67.15625h-57.128906v-67.15625c0-6.34375 5.144531-11.484375 11.488281-11.484375h34.15625c6.34375 0 11.484375 5.140625 11.484375 11.484375zm0 0" fill="#e7e7e7"/><path d="m470.933594 321.097656-17.023438-58.996094c-2.3125-8.023437-9.765625-13.628906-18.117187-13.628906h-126.261719v-42.574218h5.101562c8.199219 0 14.871094-6.667969 14.871094-14.867188v-14.703125c0-8.199219-6.671875-14.867187-14.871094-14.867187h-16.613281c21.332031-26.089844 32.132813-48.550782 32.132813-66.921876 0-52.128906-42.410156-94.539062-94.539063-94.539062-22.507812 0-44.308593 8.042969-61.394531 22.652344-16.894531 14.441406-28.199219 34.40625-31.839844 56.214844-.683594 4.085937 2.078125 7.953124 6.164063 8.636718 4.085937.683594 7.953125-2.078125 8.636719-6.167968 6.417968-38.433594 39.402343-66.328126 78.433593-66.328126 43.851563 0 79.53125 35.675782 79.53125 79.53125 0 29.476563-39.765625 72.445313-67.375 97.816407-.4375.320312-.835937.6875-1.195312 1.09375-3.972657 3.625-7.671875 6.867187-10.9375 9.628906-6.386719-5.457031-18.519531-16.171875-31.398438-29.457031-24.425781-25.1875-40.289062-47.925782-45.871093-65.746094-1.238282-3.953125-5.449219-6.15625-9.402344-4.917969-3.957032 1.238281-6.15625 5.449219-4.917969 9.40625 4.546875 14.511719 14.324219 30.960938 29.15625 49.097657h-16.609375c-8.199219 0-14.871094 6.667968-14.871094 14.867187v14.703125c0 8.199219 6.667969 14.867188 14.871094 14.867188h5.101562v42.574218h-126.261718c-8.351563 0-15.800782 5.601563-18.117188 13.628906l-17.023437 58.996094c-.652344 2.265625-.2031252 4.707032 1.214843 6.59375 1.417969 1.882813 3.636719 2.992188 5.996094 2.992188h18.8125v140.21875h-1.316406c-9.011719 0-16.34375 7.332031-16.34375 16.34375v8.410156c0 9.011719 7.332031 16.34375 16.34375 16.34375h421.226562c9.015626 0 16.347657-7.332031 16.347657-16.34375v-8.410156c0-9.015625-7.332031-16.347656-16.347657-16.347656h-1.3125v-140.21875h18.808594c2.359375 0 4.582032-1.105469 5.996094-2.992188 1.417969-1.882812 1.867188-4.324219 1.214844-6.589844zm-186.289063-144.292968c.101563-.113282.203125-.226563.308594-.339844h29.542969v14.425781h-43.488282c4.402344-4.351563 9.007813-9.078125 13.636719-14.085937zm-127.914062-.339844h29.542969c2.308593 2.507812 4.707031 5.042968 7.191406 7.601562 2.292968 2.363282 4.550781 4.640625 6.761718 6.824219h-43.496093zm-124.996094 89.796875c.472656-1.640625 1.996094-2.785157 3.699219-2.785157h126.261718v52.195313h-144.21875zm9.585937 64.417969h120.375v140.21875h-120.375zm120.375 166.3125h-136.695312c-.738281 0-1.339844-.601563-1.339844-1.335938v-8.410156c0-.738282.601563-1.339844 1.339844-1.339844h136.695312zm52.855469 0v-59.648438c0-2.195312 1.785157-3.980469 3.980469-3.980469h34.164062c2.195313 0 3.980469 1.785157 3.980469 3.980469v59.648438zm233.015625-9.746094v8.410156c0 .734375-.601562 1.335938-1.339844 1.335938h-136.695312v-11.085938h136.695312c.738282 0 1.339844.601562 1.339844 1.339844zm-17.660156-16.347656h-120.375v-35.820313c0-4.144531-3.359375-7.503906-7.503906-7.503906-4.144532 0-7.503906 3.359375-7.503906 7.503906v61.914063h-22.839844v-59.648438c0-10.46875-8.519532-18.988281-18.988282-18.988281h-34.164062c-10.472656 0-18.988281 8.519531-18.988281 18.988281v59.648438h-22.839844v-291.09375h39.40625c8.539063 7.714843 14.375 12.441406 14.789063 12.777343 1.378906 1.109375 3.042968 1.664063 4.714843 1.664063 1.667969 0 3.335938-.554688 4.710938-1.660156.460937-.375 6.292969-5.101563 14.792969-12.78125h39.40625v199.164062c0 4.144531 3.359374 7.503906 7.503906 7.503906 4.144531 0 7.503906-3.359375 7.503906-7.503906v-74.382812h120.375zm-120.375-155.226563v-52.195313h126.261719c1.703125 0 3.226562 1.144532 3.699219 2.785157l14.257812 49.414062h-144.21875zm0 0"/><path d="m330.25 384.394531h25.140625c5.035156 0 9.136719-4.101562 9.136719-9.136719v-25.140624c0-5.039063-4.101563-9.136719-9.136719-9.136719h-25.140625c-5.039062 0-9.136719 4.097656-9.136719 9.136719v25.140624c0 5.035157 4.097657 9.136719 9.136719 9.136719zm5.871094-28.40625h13.398437v13.398438h-13.398437zm0 0"/><path d="m384.53125 384.394531h25.140625c5.039063 0 9.136719-4.101562 9.136719-9.136719v-25.140624c0-5.039063-4.097656-9.136719-9.136719-9.136719h-25.140625c-5.035156 0-9.136719 4.097656-9.136719 9.136719v25.140624c0 5.035157 4.101563 9.136719 9.136719 9.136719zm5.871094-28.40625h13.398437v13.398438h-13.398437zm0 0"/><path d="m330.25 441.066406h25.140625c5.035156 0 9.136719-4.101562 9.136719-9.136718v-25.140626c0-5.039062-4.101563-9.136718-9.136719-9.136718h-25.140625c-5.039062 0-9.136719 4.097656-9.136719 9.136718v25.140626c0 5.035156 4.097657 9.136718 9.136719 9.136718zm5.871094-28.40625h13.398437v13.398438h-13.398437zm0 0"/><path d="m384.53125 441.066406h25.140625c5.039063 0 9.136719-4.101562 9.136719-9.136718v-25.140626c0-5.039062-4.097656-9.136718-9.136719-9.136718h-25.140625c-5.035156 0-9.136719 4.097656-9.136719 9.136718v25.140626c0 5.035156 4.101563 9.136718 9.136719 9.136718zm5.871094-28.40625h13.398437v13.398438h-13.398437zm0 0"/><path d="m140.976562 340.980469h-25.136718c-5.039063 0-9.140625 4.097656-9.140625 9.136719v25.140624c0 5.035157 4.101562 9.136719 9.140625 9.136719h25.136718c5.039063 0 9.136719-4.101562 9.136719-9.136719v-25.140624c0-5.039063-4.097656-9.136719-9.136719-9.136719zm-5.871093 28.40625h-13.398438v-13.398438h13.398438zm0 0"/><path d="m86.691406 340.980469h-25.136718c-5.039063 0-9.136719 4.097656-9.136719 9.136719v25.140624c0 5.035157 4.097656 9.136719 9.136719 9.136719h25.136718c5.039063 0 9.136719-4.101562 9.136719-9.136719v-25.140624c.003906-5.039063-4.097656-9.136719-9.136719-9.136719zm-5.867187 28.40625h-13.398438v-13.398438h13.398438zm0 0"/><path d="m140.976562 397.652344h-25.136718c-5.039063 0-9.140625 4.097656-9.140625 9.136718v25.140626c0 5.035156 4.101562 9.136718 9.140625 9.136718h25.136718c5.039063 0 9.136719-4.101562 9.136719-9.136718v-25.140626c0-5.039062-4.097656-9.136718-9.136719-9.136718zm-5.871093 28.40625h-13.398438v-13.398438h13.398438zm0 0"/><path d="m86.691406 397.652344h-25.136718c-5.039063 0-9.136719 4.097656-9.136719 9.136718v25.140626c0 5.035156 4.097656 9.136718 9.136719 9.136718h25.136718c5.039063 0 9.136719-4.101562 9.136719-9.136718v-25.140626c.003906-5.039062-4.097656-9.136718-9.136719-9.136718zm-5.867187 28.40625h-13.398438v-13.398438h13.398438zm0 0"/><path d="m210.480469 148.992188c.546875 5.160156 4.921875 9.191406 10.226562 9.191406h30.8125c5.304688 0 9.679688-4.03125 10.226563-9.191406 13.449218-6.148438 24.15625-16.851563 30.304687-30.300782 5.160157-.550781 9.191407-4.925781 9.191407-10.226562v-30.816406c0-5.300782-4.03125-9.679688-9.191407-10.226563-6.148437-13.449219-16.855469-24.152344-30.304687-30.300781-.546875-5.160156-4.921875-9.195313-10.226563-9.195313h-30.8125c-5.304687 0-9.679687 4.035157-10.226562 9.195313-13.449219 6.148437-24.152344 16.851562-30.304688 30.300781-5.15625.546875-9.191406 4.925781-9.191406 10.226563v30.816406c0 5.300781 4.035156 9.675781 9.191406 10.226562 6.148438 13.445313 16.855469 24.152344 30.304688 30.300782zm-13.171875-30.242188h13.113281v13.109375c-5.214844-3.445313-9.667969-7.894531-13.113281-13.109375zm64.496094 13.109375v-13.109375h13.113281c-3.445313 5.214844-7.898438 9.664062-13.113281 13.109375zm13.113281-64.496094h-13.113281v-13.109375c5.214843 3.441406 9.667968 7.894532 13.113281 13.109375zm-49.488281-24.429687h21.367187v31.933594c0 4.144531 3.359375 7.503906 7.503906 7.503906h31.933594v21.371094h-31.933594c-4.144531 0-7.503906 3.359374-7.503906 7.503906v31.933594h-21.367187v-31.933594c0-4.144532-3.363282-7.503906-7.503907-7.503906h-31.933593v-21.371094h31.933593c4.140625 0 7.503907-3.359375 7.503907-7.503906zm-15.007813 11.320312v13.109375h-13.109375c3.441406-5.214843 7.894531-9.667969 13.109375-13.109375zm0 0"/><path d="m223.550781 233.96875h-29.003906c-4.144531 0-7.503906 3.359375-7.503906 7.503906v29.003906c0 4.140626 3.359375 7.503907 7.503906 7.503907h29.003906c4.140625 0 7.503907-3.363281 7.503907-7.503907v-29.003906c0-4.144531-3.363282-7.503906-7.503907-7.503906zm-7.503906 29.003906h-13.996094v-13.996094h13.996094zm0 0"/><path d="m277.679688 233.96875h-29c-4.144532 0-7.503907 3.359375-7.503907 7.503906v29.003906c0 4.140626 3.359375 7.503907 7.503907 7.503907h29c4.144531 0 7.503906-3.363281 7.503906-7.503907v-29.003906c0-4.144531-3.359375-7.503906-7.503906-7.503906zm-7.503907 29.003906h-13.992187v-13.996094h13.992187zm0 0"/><path d="m223.550781 290.199219h-29.003906c-4.144531 0-7.503906 3.359375-7.503906 7.503906v29.003906c0 4.144531 3.359375 7.503907 7.503906 7.503907h29.003906c4.140625 0 7.503907-3.359376 7.503907-7.503907v-29.003906c0-4.144531-3.363282-7.503906-7.503907-7.503906zm-7.503906 29.003906h-13.996094v-13.996094h13.996094zm0 0"/><path d="m277.679688 290.199219h-29c-4.144532 0-7.503907 3.359375-7.503907 7.503906v29.003906c0 4.144531 3.359375 7.503907 7.503907 7.503907h29c4.144531 0 7.503906-3.359376 7.503906-7.503907v-29.003906c0-4.144531-3.359375-7.503906-7.503906-7.503906zm-7.503907 29.003906h-13.992187v-13.996094h13.992187zm0 0"/><path d="m223.550781 346.433594h-29.003906c-4.144531 0-7.503906 3.359375-7.503906 7.503906v29c0 4.144531 3.359375 7.503906 7.503906 7.503906h29.003906c4.140625 0 7.503907-3.359375 7.503907-7.503906v-29c0-4.144531-3.363282-7.503906-7.503907-7.503906zm-7.503906 29h-13.996094v-13.992188h13.996094zm0 0"/><path d="m277.679688 346.433594h-29c-4.144532 0-7.503907 3.359375-7.503907 7.503906v29c0 4.144531 3.359375 7.503906 7.503907 7.503906h29c4.144531 0 7.503906-3.359375 7.503906-7.503906v-29c0-4.144531-3.359375-7.503906-7.503906-7.503906zm-7.503907 29h-13.992187v-13.992188h13.992187zm0 0"/><path d="m252.265625 465.175781c0 4.097657-3.320313 7.421875-7.417969 7.421875-4.101562 0-7.421875-3.324218-7.421875-7.421875 0-4.097656 3.320313-7.417969 7.421875-7.417969 4.097656 0 7.417969 3.320313 7.417969 7.417969zm0 0"/></svg>