<svg height="511pt" viewBox="1 -64 511.999 511" width="511pt" xmlns="http://www.w3.org/2000/svg"><path d="m130.847656 208.316406 70.386719-55.855468c7.171875-5.691407 16.054687-8.789063 25.210937-8.789063h104.800782c8.390625 0 16.570312 2.601563 23.421875 7.449219l80.859375 57.195312zm0 0" fill="#d5f3f7"/><path d="m354.667969 151.121094c-6.851563-4.847656-15.03125-7.449219-23.421875-7.449219h-56.21875c8.390625 0 16.574218 2.601563 23.421875 7.449219l80.863281 57.195312h56.214844zm0 0" fill="#a7e8f1"/><g fill="#00915d"><path d="m269.214844 146.667969h14.972656v54.414062h-14.972656zm0 0"/><path d="m459.074219 215.804688h-349.699219l87.207031-69.207032c8.460938-6.710937 19.066407-10.410156 29.863281-10.410156h104.800782c9.992187 0 19.585937 3.050781 27.742187 8.820312zm-306.753907-14.972657h259.664063l-61.640625-43.601562c-5.613281-3.972657-12.21875-6.070313-19.097656-6.070313h-104.800782c-7.433593 0-14.734374 2.542969-20.558593 7.164063zm0 0"/><path d="m493.003906 307.082031h-474.007812c-6.355469 0-11.511719-5.15625-11.511719-11.511719v-51.847656c0-12.136718 8.171875-22.753906 19.90625-25.855468l74.601563-19.984376c9.378906-2.511718 19.050781-3.785156 28.761718-3.785156h357.722656c8.859376 0 16.039063 7.179688 16.039063 16.039063v85.433593c0 6.355469-5.15625 11.511719-11.511719 11.511719zm0 0"/></g><path d="m504.515625 250.589844h-34.203125c-8.121094 0-14.703125-6.582032-14.703125-14.703125 0-8.121094 6.582031-14.707031 14.703125-14.707031h34.203125zm0 0" fill="#ff6930"/><path d="m52.730469 246.132812c2.488281 5.28125-3.367188 13.277344-13.082031 17.859376-9.71875 4.585937-16.355469 2.484374-18.847657-2.792969-2.488281-5.28125.109375-11.738281 9.824219-16.324219 9.71875-4.582031 19.613281-4.019531 22.105469 1.257812zm0 0" fill="#e7e7e7"/><path d="m259.492188 237.28125h-14.96875c-4.136719 0-7.488282-3.351562-7.488282-7.484375s3.351563-7.484375 7.488282-7.484375h14.96875c4.136718 0 7.484374 3.351562 7.484374 7.484375.003907 4.132813-3.347656 7.484375-7.484374 7.484375zm0 0" fill="#007c4f"/><path d="m488.476562 194.097656h-15.566406v77.054688c0 6.355468-5.152344 11.511718-11.511718 11.511718h-453.914063v12.90625c0 6.355469 5.15625 11.511719 11.511719 11.511719h474.007812c6.355469 0 11.511719-5.15625 11.511719-11.511719v-85.4375c0-8.855468-7.179687-16.035156-16.039063-16.035156zm0 0" fill="#007b4e"/><path d="m472.910156 221.179688h31.605469v29.410156h-31.605469zm0 0" fill="#ff5426"/><path d="m119.179688 244.289062c30.039062 0 54.394531 24.351563 54.394531 54.390626v8.402343h-108.789063v-8.402343c0-30.039063 24.351563-54.390626 54.394532-54.390626zm0 0" fill="#5a5a5a"/><path d="m119.179688 244.289062c-5.007813 0-9.851563.6875-14.457032 1.957032 25.878906 4.183594 45.644532 26.621094 45.644532 53.683594v7.152343h23.207031v-8.398437c0-30.042969-24.355469-54.394532-54.394531-54.394532zm0 0" fill="#444"/><path d="m400.082031 244.289062c30.039063 0 54.394531 24.351563 54.394531 54.390626v8.402343h-108.789062v-8.402343c0-30.039063 24.355469-54.390626 54.394531-54.390626zm0 0" fill="#5a5a5a"/><path d="m400.082031 244.289062c-5.007812 0-9.851562.6875-14.453125 1.957032 25.878906 4.183594 45.644532 26.621094 45.644532 53.683594v7.152343h23.203124v-8.398437c0-30.042969-24.355468-54.394532-54.394531-54.394532zm0 0" fill="#444"/><path d="m155.769531 304.515625c0 20.210937-16.382812 36.589844-36.589843 36.589844-20.207032 0-36.589844-16.378907-36.589844-36.589844 0-20.207031 16.382812-36.585937 36.589844-36.585937 20.207031 0 36.589843 16.378906 36.589843 36.585937zm0 0" fill="#9c9c9c"/><path d="m131.5625 270.082031c4.207031 5.960938 6.6875 13.226563 6.6875 21.078125 0 20.207032-16.382812 36.585938-36.589844 36.585938-4.34375 0-8.511718-.761719-12.378906-2.152344 6.625 9.378906 17.542969 15.511719 29.898438 15.511719 20.207031 0 36.589843-16.382813 36.589843-36.589844 0-15.859375-10.09375-29.359375-24.207031-34.433594zm0 0" fill="#838383"/><path d="m135.277344 304.515625c0 8.894531-7.207032 16.101563-16.097656 16.101563-8.890626 0-16.101563-7.207032-16.101563-16.101563 0-8.890625 7.210937-16.097656 16.101563-16.097656 8.890624 0 16.097656 7.207031 16.097656 16.097656zm0 0" fill="#e7e7e7"/><path d="m124.625 289.382812c.425781 1.445313.660156 2.96875.660156 4.550782 0 8.890625-7.207031 16.101562-16.097656 16.101562-1.914062 0-3.742188-.355468-5.445312-.96875 1.964843 6.675782 8.128906 11.550782 15.4375 11.550782 8.890624 0 16.097656-7.207032 16.097656-16.101563 0-6.976563-4.445313-12.898437-10.652344-15.132813zm0 0" fill="#cecece"/><path d="m436.671875 304.515625c0 20.210937-16.382813 36.589844-36.589844 36.589844s-36.589843-16.378907-36.589843-36.589844c0-20.207031 16.382812-36.585937 36.589843-36.585937s36.589844 16.378906 36.589844 36.585937zm0 0" fill="#9c9c9c"/><path d="m412.464844 270.082031c4.210937 5.960938 6.691406 13.226563 6.691406 21.078125 0 20.207032-16.382812 36.585938-36.589844 36.585938-4.347656 0-8.515625-.761719-12.382812-2.152344 6.625 9.378906 17.542968 15.511719 29.902344 15.511719 20.207031 0 36.585937-16.382813 36.585937-36.589844 0-15.859375-10.09375-29.359375-24.207031-34.433594zm0 0" fill="#838383"/><path d="m416.179688 304.515625c0 8.894531-7.207032 16.101563-16.097657 16.101563s-16.097656-7.207032-16.097656-16.101563c0-8.890625 7.207031-16.097656 16.097656-16.097656s16.097657 7.207031 16.097657 16.097656zm0 0" fill="#e7e7e7"/><path d="m405.527344 289.382812c.425781 1.445313.664062 2.96875.664062 4.550782 0 8.890625-7.207031 16.101562-16.097656 16.101562-1.914062 0-3.742188-.355468-5.445312-.96875 1.964843 6.675782 8.125 11.550782 15.433593 11.550782 8.890625 0 16.101563-7.207032 16.101563-16.101563 0-6.976563-4.449219-12.898437-10.65625-15.132813zm0 0" fill="#cecece"/><path d="m309.574219 88.167969h60.980469v222.890625h-60.980469zm0 0" fill="#9c9c9c"/><path d="m349.628906 88.167969h20.921875v222.890625h-20.921875zm0 0" fill="#838383"/><path d="m369.398438 12.359375v29.480469c0 8.101562-6.566407 14.667968-14.667969 14.667968h-28.164063c-8.097656 0-14.667968-6.566406-14.667968-14.667968v-30.339844c0-2.867188-3.222657-4.503906-5.574219-2.863281-15.425781 10.761719-25.46875 28.703125-25.289063 48.976562.289063 32.609375 26.421875 58.492188 59.027344 58.492188 32.601562 0 59.03125-26.425781 59.03125-59.027344 0-19.5-9.464844-36.777344-24.039062-47.523437-2.34375-1.726563-5.65625-.105469-5.65625 2.804687zm0 0" fill="#9c9c9c"/><path d="m340.0625 268.957031c-32.550781 0-58.59375 25.6875-59.023438 58.234375-.265624 20.105469 9.53125 37.933594 24.664063 48.785156 2.347656 1.679688 5.609375.042969 5.609375-2.839843v-32.0625c0-8.101563 6.566406-14.667969 14.667969-14.667969h28.164062c8.101563 0 14.667969 6.566406 14.667969 14.667969v32.066406c0 2.835937 3.210938 4.546875 5.515625 2.902344 14.988281-10.703125 24.761719-28.234375 24.761719-48.054688 0-32.601562-26.425782-59.03125-59.027344-59.03125zm0 0" fill="#9c9c9c"/><path d="m375.054688 9.554688c-2.34375-1.726563-5.65625-.105469-5.65625 2.804687v23.640625c2.507812 6.546875 3.890624 13.648438 3.890624 21.082031 0 28.183594-19.761718 51.742188-46.183593 57.609375 4.167969.917969 8.5 1.417969 12.957031 1.417969 32.597656 0 59.027344-26.429687 59.027344-59.027344 0-19.5-9.460938-36.78125-24.035156-47.527343zm0 0" fill="#838383"/><path d="m340.0625 268.957031c-4.460938 0-8.796875.5-12.964844 1.417969 26.425782 5.863281 46.191406 29.421875 46.191406 57.609375 0 8-1.59375 15.621094-4.476562 22.578125v22.578125c0 2.835937 3.210938 4.546875 5.515625 2.898437 14.988281-10.703124 24.761719-28.230468 24.761719-48.054687 0-32.597656-26.425782-59.027344-59.027344-59.027344zm0 0" fill="#838383"/><path d="m488.476562 186.613281h-70.671874l-39.765626-28.128906v-46.84375c17.230469-12.03125 28.535157-31.996094 28.535157-54.558594 0-21.03125-10.121094-41.050781-27.082031-53.550781-3.382813-2.496094-7.808594-2.871094-11.550782-.980469-3.71875 1.878907-6.027344 5.636719-6.027344 9.808594v29.480469c0 3.960937-3.222656 7.183594-7.183593 7.183594h-28.164063c-3.960937 0-7.179687-3.222657-7.179687-7.183594v-30.339844c0-4.109375-2.265625-7.84375-5.902344-9.746094-3.664063-1.910156-8.046875-1.625-11.445313.746094-18.03125 12.582031-28.683593 33.210938-28.488281 55.179688.15625 17.757812 7.121094 34.351562 19.609375 46.726562 2.777344 2.75 5.769532 5.210938 8.925782 7.398438v24.382812h-75.640626c-10.796874 0-21.402343 3.695312-29.863281 10.410156l-50.421875 40.011719h-15.40625c-10.359375 0-20.6875 1.363281-30.695312 4.042969l-74.578125 19.976562c-15.003907 3.96875-25.480469 17.578125-25.480469 33.09375v51.847656c0 10.472657 8.523438 18.996094 18.996094 18.996094h57.277344c4.5625 19.476563 22.0625 34.027344 42.90625 34.027344s38.34375-14.550781 42.90625-34.027344h112.792968c-.816406 4.070313-1.269531 8.261719-1.324218 12.527344-.285157 21.738281 10.101562 42.285156 27.789062 54.96875 3.386719 2.425781 7.789062 2.75 11.484375.855469 3.683594-1.894531 5.96875-5.640625 5.96875-9.78125v-32.0625c0-3.960938 3.222656-7.183594 7.183594-7.183594h28.164062c3.960938 0 7.179688 3.222656 7.179688 7.183594v32.066406c0 4.148437 2.296875 7.902344 5.992187 9.804687 1.589844.820313 3.3125 1.226563 5.027344 1.226563 2.230469 0 4.445312-.6875 6.335938-2.039063 11.738281-8.382812 20.289062-20.273437 24.640624-33.671874 19.398438-1.417969 35.34375-15.4375 39.667969-33.894532h50.015625c10.472656 0 18.996094-8.523437 18.996094-19v-85.433594c0-12.96875-10.550781-23.519531-23.523438-23.519531zm-18.164062 56.488281c-3.976562 0-7.214844-3.234374-7.214844-7.214843s3.238282-7.21875 7.214844-7.21875h26.714844v14.4375h-26.714844zm-78.433594-56.488281h-13.839844v-9.792969zm-103.359375-129.066406c-.125-14.332031 5.707031-27.933594 15.894531-37.695313v21.988282c0 12.214844 9.9375 22.152344 22.152344 22.152344h28.164063c12.214843 0 22.15625-9.9375 22.15625-22.152344v-20.796875c9.328125 9.5625 14.71875 22.53125 14.71875 36.035156 0 28.421875-23.121094 51.542969-51.542969 51.542969-28.648438.003906-51.289062-22.433594-51.542969-51.074219zm-4.332031 93.613281h17.898438v35.449219h-17.898438zm-165.007812 182.460938c-16.046876 0-29.105469-13.058594-29.105469-29.105469s13.058593-29.101563 29.105469-29.101563c16.046874 0 29.101562 13.054688 29.101562 29.101563s-13.054688 29.105469-29.101562 29.105469zm46.90625-34.027344h-3.113282c-2.457031-21.992188-21.15625-39.152344-43.792968-39.152344-22.640626 0-41.339844 17.160156-43.792969 39.152344h-3.117188v-.914062c0-25.863282 21.042969-46.90625 46.910157-46.90625 25.863281 0 46.90625 21.042968 46.90625 46.90625zm14.972656 0v-.914062c0-34.117188-27.757813-61.878907-61.878906-61.878907-34.121094 0-61.878907 27.761719-61.878907 61.878907v.914062h-38.304687c-2.21875 0-4.023438-1.804688-4.023438-4.023438v-29.453124c2.445313 3.960937 6.332032 6.609374 11.128906 7.53125 1.253907.238281 2.539063.359374 3.867188.359374 3.984375 0 8.300781-1.085937 12.871094-3.242187 13.890625-6.554687 21.050781-18.515625 16.660156-27.824219v-.003906c-4.394531-9.308594-18.179688-11.382812-32.066406-4.832031-6.128906 2.894531-10.144532 6.566406-12.460938 10.449219v-4.832032c0-8.730468 5.894532-16.386718 14.355469-18.625l74.601563-19.984375c8.746093-2.34375 17.769531-3.53125 26.824218-3.53125h49.894532c4.132812 0 7.484374-3.351562 7.484374-7.484375 0-4.132812-3.351562-7.484375-7.484374-7.484375h-10.40625l35.644531-28.289062c5.824219-4.621094 13.125-7.164063 20.558593-7.164063h42.769532v35.453125h-54.136719c-4.132813 0-7.484375 3.351563-7.484375 7.484375 0 4.132813 3.351562 7.484375 7.484375 7.484375h87.007813v71.636719c-9.800782 6.753906-17.410157 15.867188-22.304688 26.375zm-147.238282-47.945312c3.875-1.828126 7.222657-2.386719 9.503907-2.386719.957031 0 1.726562.097656 2.265625.242187-.785156 1.722656-3.640625 5.128906-9.136719 7.71875-4.304687 2.035156-6.695313 1.882813-7.523437 1.722656-.925782-.179687-1.171876-.546874-1.355469-.941406-.765625-1.613281 1.863281-4.289062 6.246093-6.355468zm342.476563 112.972656v-23.546875c0-12.214844-9.9375-22.152344-22.152344-22.152344h-28.164062c-12.214844 0-22.152344 9.9375-22.152344 22.152344v23.554687c-9.878906-9.78125-15.488281-23.238281-15.304687-37.335937.238281-18.101563 9.542968-34.390625 24.890624-43.566407 2.039063-1.21875 3.40625-3.414062 3.609376-5.773437.015624-.179687.023437-.359375.027343-.539063 0-.039062.007813-.078124.007813-.117187v-157.734375c7.257812 2.640625 15.015625 4.03125 23.003906 4.03125 8.082031 0 15.832031-1.453125 23.003906-4.105469v146.074219c-6.070312-2.234375-12.558594-3.621094-19.335937-3.988281-4.140625-.195313-7.65625 2.9375-7.878907 7.066406-.226562 4.125 2.9375 7.65625 7.066407 7.878906 27.300781 1.488281 48.6875 24.097657 48.6875 51.46875 0 13.828125-5.609375 27.023438-15.308594 36.632813zm28.300781-52.78125c-1.386718-5.566406-3.492187-10.855469-6.1875-15.773438.542969-.105468 1.105469-.164062 1.671875-.164062 4.75 0 8.613281 3.867187 8.613281 8.613281 0 3.09375-1.644531 5.804687-4.097656 7.324219zm1.785156 21.085937c.125-1.636719.195313-3.285156.195313-4.941406 0-.265625-.015625-.527344-.019531-.792969 9.863281-2.824218 17.109375-11.917968 17.109375-22.675781 0-13.003906-10.578125-23.585937-23.585938-23.585937-3.761719 0-7.375.878906-10.628906 2.523437-1.28125-1.421875-2.621094-2.789063-4.019531-4.09375 4.394531-2.570313 9.40625-3.949219 14.648437-3.949219 16.046875 0 29.105469 13.058594 29.105469 29.105469 0 13.886719-9.777344 25.523437-22.804688 28.410156zm40.609376-33.332031h-3.117188c-2.453125-21.992188-21.152344-39.152344-43.792969-39.152344-7.886719 0-15.421875 2.058594-22.042969 5.898438v-9.070313c6.757813-3.601562 14.300782-5.496093 22.042969-5.496093 25.867188 0 46.910157 21.042968 46.910157 46.90625zm46.011718 0h-31.042968v-.914062c0-34.117188-27.757813-61.878907-61.878907-61.878907-7.597656 0-15.050781 1.386719-22.042969 4.050781v-39.269531h110.4375c4.714844 0 8.554688 3.835938 8.554688 8.554688v3.558593h-26.714844c-12.238281 0-22.191406 9.953126-22.191406 22.191407 0 12.234375 9.953125 22.1875 22.191406 22.1875h26.714844v37.496093c-.003906 2.21875-1.808594 4.023438-4.027344 4.023438zm0 0"/><path d="m259.492188 222.308594h-14.96875c-4.136719 0-7.488282 3.351562-7.488282 7.488281 0 4.132813 3.351563 7.484375 7.488282 7.484375h14.96875c4.136718 0 7.484374-3.351562 7.484374-7.484375.003907-4.136719-3.347656-7.488281-7.484374-7.488281zm0 0"/><path d="m119.179688 280.933594c-13.003907 0-23.585938 10.578125-23.585938 23.582031 0 13.007813 10.582031 23.585937 23.585938 23.585937 13.003906 0 23.585937-10.578124 23.585937-23.585937 0-13.003906-10.582031-23.582031-23.585937-23.582031zm0 32.199218c-4.75 0-8.613282-3.867187-8.613282-8.617187 0-4.746094 3.863282-8.613281 8.613282-8.613281s8.613281 3.867187 8.613281 8.613281c0 4.75-3.863281 8.617187-8.613281 8.617187zm0 0"/></svg>