<svg height="512pt" viewBox="-14 0 512 512" width="512pt" xmlns="http://www.w3.org/2000/svg"><path d="m45.417969 294.023438h403.78125v197.417968h-403.78125zm0 0" fill="#fed974"/><path d="m90.570312 378.808594v-84.785156h-45.152343v197.417968h403.78125v-39.519531h-285.515625c-40.378906 0-73.113282-32.734375-73.113282-73.113281zm0 0" fill="#f7ce69"/><path d="m460.082031 504.496094h-426.808593c-3.75 0-6.789063-3.039063-6.789063-6.789063v-12.527343c0-3.75 3.042969-6.789063 6.789063-6.789063h426.808593c3.746094 0 6.785157 3.039063 6.785157 6.789063v12.527343c0 3.75-3.039063 6.789063-6.785157 6.789063zm0 0" fill="#6285a4"/><path d="m43.144531 493.308594c-3.75 0-6.789062-3.042969-6.789062-6.789063v-8.132812h-3.078125c-3.75 0-6.789063 3.042969-6.789063 6.789062v12.53125c0 3.75 3.039063 6.789063 6.789063 6.789063h426.804687c3.75 0 6.789063-3.042969 6.789063-6.789063v-4.402343h-423.726563zm0 0" fill="#567d9b"/><path d="m190.875 255.851562v67.238282h-165.859375c-2.96875 0-5.105469-2.847656-4.285156-5.695313l15.394531-53.332031c1.402344-4.867188 5.855469-8.210938 10.910156-8.210938zm0 0" fill="#1a94fa"/><path d="m59.351562 300.328125c-2.96875 0-5.109374-2.84375-4.285156-5.695313l11.191406-38.78125h-19.222656c-5.054687 0-9.511718 3.34375-10.910156 8.210938l-15.394531 53.328125c-.824219 2.851563 1.316406 5.695313 4.285156 5.695313h165.859375v-22.757813zm0 0" fill="#0081d8"/><path d="m458.496094 264.0625 15.394531 53.332031c.820313 2.851563-1.316406 5.695313-4.285156 5.695313h-164.859375v-67.238282h142.839844c5.054687 0 9.507812 3.34375 10.910156 8.210938zm0 0" fill="#1a94fa"/><path d="m458.496094 264.0625 15.394531 53.332031c.820313 2.851563-1.316406 5.695313-4.285156 5.695313h-164.859375v-67.238282h142.839844c5.054687 0 9.507812 3.34375 10.910156 8.210938zm0 0" fill="#1a94fa"/><path d="m469.378906 301.773438h-164.632812v21.316406h164.859375c2.964843 0 5.105469-2.847656 4.28125-5.695313zm0 0" fill="#0081d8"/><path d="m313.753906 193.242188v311.253906h-132.890625v-326.078125l66.945313-62.5 65.945312 58.695312zm0 0" fill="#fcc53a"/><path d="m254.296875 178.417969 31.105469-29.042969-37.59375-33.457031-66.945313 62.5v326.078125h43.21875v-256.539063c0-26.363281 10.941407-51.546875 30.214844-69.539062zm0 0" fill="#f2b42c"/><path d="m333.742188 14.949219v49.625c0 4.117187-3.332032 7.449219-7.445313 7.449219h-78.988281v-64.511719h78.988281c4.113281 0 7.445313 3.332031 7.445313 7.4375zm0 0" fill="#f64446"/><g fill="#3dcff3"><path d="m423.082031 350.042969v25.144531c0 .902344-.730469 1.644531-1.632812 1.644531h-25.144531c-.910157 0-1.640626-.742187-1.640626-1.644531v-25.144531c0-.910157.730469-1.640625 1.640626-1.640625h25.144531c.902343 0 1.632812.730468 1.632812 1.640625zm0 0"/><path d="m423.082031 406.738281v25.15625c0 .902344-.730469 1.632813-1.632812 1.632813h-25.144531c-.910157 0-1.640626-.730469-1.640626-1.632813v-25.15625c0-.898437.730469-1.628906 1.640626-1.628906h25.144531c.902343 0 1.632812.730469 1.632812 1.628906zm0 0"/><path d="m368.777344 406.738281v25.15625c0 .902344-.730469 1.632813-1.628906 1.632813h-25.15625c-.902344 0-1.632813-.730469-1.632813-1.632813v-25.15625c0-.898437.730469-1.628906 1.632813-1.628906h25.15625c.898437 0 1.628906.730469 1.628906 1.628906zm0 0"/><path d="m368.777344 350.042969v25.144531c0 .902344-.730469 1.644531-1.628906 1.644531h-25.15625c-.902344 0-1.632813-.742187-1.632813-1.644531v-25.144531c0-.910157.730469-1.640625 1.632813-1.640625h25.15625c.898437 0 1.628906.730468 1.628906 1.640625zm0 0"/><path d="m99.957031 406.738281v25.15625c0 .902344-.730469 1.632813-1.644531 1.632813h-25.144531c-.898438 0-1.628907-.730469-1.628907-1.632813v-25.15625c0-.898437.730469-1.628906 1.628907-1.628906h25.144531c.914062 0 1.644531.730469 1.644531 1.628906zm0 0"/><path d="m154.257812 406.738281v25.15625c0 .902344-.730468 1.632813-1.628906 1.632813h-25.15625c-.902344 0-1.632812-.730469-1.632812-1.632813v-25.15625c0-.898437.730468-1.628906 1.632812-1.628906h25.15625c.898438 0 1.628906.730469 1.628906 1.628906zm0 0"/><path d="m154.257812 350.042969v25.144531c0 .902344-.730468 1.644531-1.628906 1.644531h-25.15625c-.902344 0-1.632812-.742187-1.632812-1.644531v-25.144531c0-.910157.730468-1.640625 1.632812-1.640625h25.15625c.898438 0 1.628906.730468 1.628906 1.640625zm0 0"/><path d="m99.957031 350.042969v25.144531c0 .902344-.730469 1.644531-1.644531 1.644531h-25.144531c-.898438 0-1.628907-.742187-1.628907-1.644531v-25.144531c0-.910157.730469-1.640625 1.628907-1.640625h25.144531c.914062 0 1.644531.730468 1.644531 1.640625zm0 0"/></g><path d="m218.730469 427.183594h57.15625v77.3125h-57.15625zm0 0" fill="#b76224"/><path d="m342.414062 185.683594c2.109376 1.953125 2.25 5.246094.296876 7.367187l-9.886719 10.730469c-1.953125 2.121094-5.246094 2.253906-7.367188.3125l-77.675781-71.550781-79.839844 71.699219c-2.140625 1.921874-5.445312 1.742187-7.367187-.398438l-9.75-10.863281c-1.921875-2.140625-1.75-5.433594.390625-7.355469l88.308594-79.296875c4.804687-4.316406 12.089843-4.265625 16.835937.097656zm0 0" fill="#1a94fa"/><path d="m247.808594 185.84375c22.734375 0 41.160156 18.429688 41.160156 41.160156 0 22.722656-18.425781 41.152344-41.160156 41.152344-22.730469 0-41.160156-18.429688-41.160156-41.152344 0-22.730468 18.429687-41.160156 41.160156-41.160156zm0 0" fill="#3dcff3"/><path d="m267.066406 255.851562c-22.734375 0-41.160156-18.425781-41.160156-41.148437 0-10.417969 3.878906-19.925781 10.257812-27.175781-17.058593 5.023437-29.515624 20.792968-29.515624 39.476562 0 22.722656 18.429687 41.152344 41.160156 41.152344 12.316406 0 23.359375-5.417969 30.902344-13.984375-3.695313 1.085937-7.601563 1.679687-11.644532 1.679687zm0 0" fill="#00bdd1"/><path d="m289.539062 313.929688v48.96875c0 3.300781-2.679687 5.976562-5.972656 5.976562h-72.921875c-3.292969 0-5.976562-2.675781-5.976562-5.976562v-48.96875c0-3.304688 2.683593-5.976563 5.976562-5.976563h72.921875c3.292969 0 5.972656 2.671875 5.972656 5.976563zm0 0" fill="#e7e7e7"/><path d="m287.410156 419.492188v11.101562c0 3.261719-2.644531 5.90625-5.90625 5.90625h-67.386718c-3.261719 0-5.90625-2.644531-5.90625-5.90625v-11.101562c0-3.261719 2.644531-5.90625 5.90625-5.90625h67.386718c3.261719 0 5.90625 2.644531 5.90625 5.90625zm0 0" fill="#7e4335"/><path d="m473.671875 190.097656c2.222656 2.222656 3.601563 5.296875 3.601563 8.699219 0 6.796875-5.503907 12.300781-12.300782 12.300781h-80.929687c-3.402344 0-6.476563-1.371094-8.699219-3.601562-2.230469-2.222656-3.601562-5.296875-3.601562-8.699219 0-6.796875 5.503906-12.300781 12.300781-12.300781h9.488281c-.980469-2.984375-1.378906-6.226563-1.03125-9.601563 1.132812-10.839843 9.960938-19.496093 20.820312-20.390625 11.402344-.949218 21.242188 6.488282 24.035157 16.816406 1.191406-.320312 2.441406-.5 3.742187-.5 7.769532 0 14.113282 6.039063 14.636719 13.675782h9.238281c3.394532 0 6.476563 1.371094 8.699219 3.601562zm0 0" fill="#3dcff3"/><path d="m473.671875 46.097656c2.222656 2.234375 3.601563 5.304688 3.601563 8.699219 0 6.796875-5.503907 12.3125-12.300782 12.3125h-80.929687c-3.402344 0-6.476563-1.382813-8.699219-3.605469-2.230469-2.230468-3.601562-5.304687-3.601562-8.707031 0-6.785156 5.503906-12.300781 12.300781-12.300781h9.488281c-.980469-2.972656-1.378906-6.21875-1.03125-9.601563 1.132812-10.839843 9.960938-19.488281 20.820312-20.390625 11.402344-.941406 21.242188 6.496094 24.035157 16.816406 1.191406-.308593 2.441406-.5 3.742187-.5 7.769532 0 14.113282 6.035157 14.636719 13.675782h9.238281c3.394532 0 6.476563 1.378906 8.699219 3.601562zm0 0" fill="#3dcff3"/><path d="m109.445312 109.460938c2.230469 2.222656 3.601563 5.292968 3.601563 8.699218 0 6.792969-5.503906 12.300782-12.300781 12.300782h-80.929688c-3.390625 0-6.476562-1.371094-8.707031-3.605469-2.222656-2.222657-3.605469-5.292969-3.605469-8.695313 0-6.796875 5.515625-12.304687 12.3125-12.304687h9.488282c-.980469-2.980469-1.378907-6.226563-1.027344-9.609375 1.128906-10.828125 9.957031-19.488282 20.808594-20.390625 11.410156-.9375 21.25 6.496093 24.042968 16.828125 1.191406-.320313 2.441406-.5 3.746094-.5 7.765625 0 14.101562 6.035156 14.632812 13.671875h9.238282c3.402344 0 6.476562 1.371093 8.699218 3.605469zm0 0" fill="#3dcff3"/><path d="m465.710938 261.984375c-2.316407-8.03125-9.769532-13.640625-18.125-13.640625h-126.320313v-37.988281c2.355469 1.808593 5.246094 2.730469 8.246094 2.609375 3.394531-.140625 6.53125-1.59375 8.832031-4.09375l9.890625-10.738282c4.753906-5.15625 4.421875-13.222656-.738281-17.976562l-86.050782-79.25c-1.988281-1.832031-4.242187-3.179688-6.628906-4.066406v-17.3125h71.480469c8.242187 0 14.949219-6.707032 14.949219-14.949219v-49.628906c0-8.242188-6.703125-14.949219-14.949219-14.949219h-78.988281c-4.144532 0-7.507813 3.359375-7.507813 7.507812v89.8125c-1.882812.835938-3.675781 1.960938-5.292969 3.414063l-88.304687 79.304687c-5.21875 4.683594-5.652344 12.742188-.964844 17.964844l9.753907 10.859375c2.507812 2.792969 5.980468 4.214844 9.46875 4.214844 3.027343 0 6.070312-1.074219 8.492187-3.25l.402344-.359375v38.875h-126.320313c-8.355468 0-15.8125 5.609375-18.125 13.640625l-17.03125 59.023437c-.652344 2.265626-.203125 4.707032 1.210938 6.59375 1.421875 1.886719 3.640625 2.996094 6 2.996094h18.820312v140.28125h-1.3125c-9.019531 0-16.355468 7.335938-16.355468 16.355469v8.414063c0 9.015624 7.335937 16.351562 16.355468 16.351562h421.425782c9.019531 0 16.355468-7.335938 16.355468-16.351562v-8.414063c0-9.019531-7.335937-16.355469-16.355468-16.355469h-1.3125v-140.285156h18.820312c2.359375 0 4.578125-1.105469 5.996094-2.992188 1.421875-1.886718 1.871094-4.328124 1.214844-6.59375zm-210.894532-246.976563 71.417969-.058593.066406 49.566406h-71.484375zm-211.480468 251.136719c.472656-1.640625 1.996093-2.785156 3.699218-2.785156h126.320313v52.222656h-144.285157zm9.589843 64.449219h120.429688v140.285156h-120.429688zm-17.667969 165.054688v-8.414063c0-.738281.601563-1.339844 1.335938-1.339844h136.761719v11.089844h-136.761719c-.738281 0-1.335938-.601563-1.335938-1.335937zm180.460938-66.65625v-7.898438h64.183594v7.898438zm10.519531 67.992187v-52.976563h42.144531v52.976563zm233.125-9.75v8.414063c0 .734374-.601562 1.335937-1.339843 1.335937h-136.757813v-11.089844h136.757813c.738281 0 1.339843.601563 1.339843 1.339844zm-17.671875-16.355469h-120.425781v-64.023437c0-4.148438-3.363281-7.507813-7.507813-7.507813-4.148437 0-7.507812 3.359375-7.507812 7.507813v90.128906h-22.851562v-53.128906c6.5-.925781 11.515624-6.511719 11.515624-13.265625v-11.09375c0-7.398438-6.015624-13.417969-13.414062-13.417969h-67.382812c-7.394532 0-13.414063 6.019531-13.414063 13.417969v11.09375c0 6.402344 4.511719 11.765625 10.519531 13.09375v53.300781h-22.855468v-301l15.511718-13.925781c3.082032-2.773438 3.335938-7.519532.566406-10.601563-2.769531-3.085937-7.515624-3.339843-10.601562-.570312l-29.214844 26.234375-6.6875-7.445313 86.597656-77.769531c.949219-.851562 2.128907-1.273438 3.308594-1.28125.027344-.003906.054688-.003906.082032-.003906 1.199218.011718 2.394531.453125 3.34375 1.328125l84.363281 77.699219-6.78125 7.363281-9.457031-8.710938c-.351563-.402343-.746094-.761719-1.171876-1.082031l-65.363281-60.199219c-2.847656-2.621093-7.222656-2.648437-10.101562-.0625l-26.539063 23.835938c-3.085937 2.769531-3.339844 7.515625-.570312 10.601562 2.769531 3.085938 7.515625 3.339844 10.601562.570313l21.460938-19.273438 58.535156 53.910156v180.222657c0 4.148437 3.363281 7.507812 7.507812 7.507812 4.144532 0 7.507813-3.359375 7.507813-7.507812v-46.230469h120.429687v140.285156zm-120.425781-155.296875v-52.222656h126.316406c1.707031 0 3.230469 1.144531 3.703125 2.785156l14.261719 49.4375zm0 0"/><path d="m341.992188 384.332031h25.148437c5.042969 0 9.144531-4.101562 9.144531-9.140625v-25.152344c0-5.039062-4.101562-9.140624-9.144531-9.140624h-25.148437c-5.042969 0-9.144532 4.101562-9.144532 9.140624v25.152344c0 5.039063 4.101563 9.140625 9.144532 9.140625zm5.871093-28.417969h13.40625v13.40625h-13.40625zm0 0"/><path d="m396.300781 384.332031h25.148438c5.042969 0 9.144531-4.101562 9.144531-9.140625v-25.152344c0-5.039062-4.101562-9.140624-9.144531-9.140624h-25.148438c-5.042969 0-9.144531 4.101562-9.144531 9.140624v25.152344c0 5.039063 4.105469 9.140625 9.144531 9.140625zm5.871094-28.417969h13.40625v13.40625h-13.40625zm0 0"/><path d="m341.992188 441.03125h25.148437c5.042969 0 9.144531-4.101562 9.144531-9.140625v-25.152344c0-5.039062-4.101562-9.140625-9.144531-9.140625h-25.148437c-5.042969 0-9.144532 4.101563-9.144532 9.140625v25.152344c0 5.039063 4.101563 9.140625 9.144532 9.140625zm5.871093-28.417969h13.40625v13.402344h-13.40625zm0 0"/><path d="m396.300781 441.03125h25.148438c5.042969 0 9.144531-4.101562 9.144531-9.140625v-25.152344c0-5.039062-4.101562-9.140625-9.144531-9.140625h-25.148438c-5.042969 0-9.144531 4.101563-9.144531 9.140625v25.152344c0 5.039063 4.105469 9.140625 9.144531 9.140625zm5.871094-28.417969h13.40625v13.402344h-13.40625zm0 0"/><path d="m152.628906 340.898438h-25.152344c-5.039062 0-9.140624 4.101562-9.140624 9.140624v25.152344c0 5.039063 4.101562 9.140625 9.140624 9.140625h25.152344c5.039063 0 9.140625-4.101562 9.140625-9.140625v-25.152344c0-5.039062-4.101562-9.140624-9.140625-9.140624zm-5.875 28.421874h-13.402344v-13.40625h13.402344zm0 0"/><path d="m98.320312 340.898438h-25.152343c-5.042969 0-9.140625 4.101562-9.140625 9.140624v25.152344c0 5.039063 4.097656 9.140625 9.140625 9.140625h25.148437c5.042969 0 9.144532-4.101562 9.144532-9.140625v-25.152344c0-5.039062-4.101563-9.140624-9.140626-9.140624zm-5.875 28.421874h-13.402343v-13.40625h13.402343zm0 0"/><path d="m152.628906 397.597656h-25.152344c-5.039062 0-9.140624 4.101563-9.140624 9.140625v25.152344c0 5.039063 4.101562 9.140625 9.140624 9.140625h25.152344c5.039063 0 9.140625-4.101562 9.140625-9.140625v-25.152344c0-5.039062-4.101562-9.140625-9.140625-9.140625zm-5.875 28.417969h-13.402344v-13.402344h13.402344zm0 0"/><path d="m98.320312 397.597656h-25.152343c-5.042969 0-9.140625 4.101563-9.140625 9.140625v25.152344c0 5.039063 4.097656 9.140625 9.140625 9.140625h25.148437c5.042969 0 9.144532-4.101562 9.144532-9.140625v-25.152344c0-5.039062-4.101563-9.140625-9.140626-9.140625zm-5.875 28.417969h-13.402343v-13.402344h13.402343zm0 0"/><path d="m263.96875 465.15625c0 4.097656-3.324219 7.421875-7.421875 7.421875-4.101563 0-7.421875-3.324219-7.421875-7.421875 0-4.101562 3.320312-7.425781 7.421875-7.425781 4.097656 0 7.421875 3.324219 7.421875 7.425781zm0 0"/><path d="m247.808594 275.664062c26.835937 0 48.664062-21.832031 48.664062-48.664062s-21.832031-48.660156-48.664062-48.660156c-26.832032 0-48.660156 21.828125-48.660156 48.660156s21.828124 48.664062 48.660156 48.664062zm0-82.3125c18.554687 0 33.648437 15.097657 33.648437 33.648438 0 18.554688-15.09375 33.648438-33.648437 33.648438-18.550782 0-33.644532-15.09375-33.644532-33.648438 0-18.550781 15.09375-33.648438 33.644532-33.648438zm0 0"/><path d="m242.980469 232.75 13.742187 11.539062c1.40625 1.179688 3.121094 1.757813 4.824219 1.757813 2.140625 0 4.269531-.910156 5.753906-2.679687 2.667969-3.175782 2.253907-7.910157-.921875-10.578126l-11.0625-9.289062v-11.882812c0-4.148438-3.359375-7.507813-7.507812-7.507813-4.144532 0-7.507813 3.359375-7.507813 7.507813v15.382812c0 2.21875.984375 4.324219 2.679688 5.75zm0 0"/><path d="m283.5625 300.445312h-72.914062c-7.4375 0-13.484376 6.046876-13.484376 13.484376v48.96875c0 7.433593 6.046876 13.484374 13.484376 13.484374h72.914062c7.433594 0 13.484375-6.050781 13.484375-13.484374v-48.96875c0-7.4375-6.050781-13.484376-13.484375-13.484376zm-1.53125 60.921876h-69.855469v-45.90625h69.855469zm0 0"/><path d="m384.039062 74.613281h80.933594c10.921875 0 19.808594-8.890625 19.808594-19.8125 0-10.925781-8.886719-19.8125-19.808594-19.8125h-3.402344c-3.21875-7.699219-10.65625-13.183593-19.304687-13.640625-5.535156-10.714844-17.109375-17.363281-29.566406-16.324218-14.515625 1.199218-26.152344 12.59375-27.664063 27.09375-.097656.960937-.152344 1.917968-.164062 2.871093h-.832032c-10.925781 0-19.8125 8.886719-19.8125 19.8125 0 10.921875 8.890626 19.8125 19.8125 19.8125zm0-24.609375h9.496094c2.410156 0 4.671875-1.15625 6.085938-3.109375 1.410156-1.953125 1.796875-4.464843 1.042968-6.753906-.691406-2.085937-.921874-4.261719-.695312-6.464844.753906-7.207031 6.757812-13.09375 13.96875-13.6875 7.4375-.632812 14.234375 4.136719 16.167969 11.296875 1.078125 3.980469 5.167969 6.351563 9.15625 5.300782.648437-.171876 1.25-.253907 1.835937-.253907 3.75 0 6.886719 2.933594 7.144532 6.679688.269531 3.9375 3.542968 6.992187 7.488281 6.992187h9.238281c2.644531 0 4.796875 2.152344 4.796875 4.796875s-2.152344 4.796875-4.796875 4.796875h-80.929688c-2.644531 0-4.796874-2.152344-4.796874-4.796875s2.152343-4.796875 4.796874-4.796875zm0 0"/><path d="m464.972656 178.984375h-3.402344c-3.21875-7.699219-10.65625-13.183594-19.304687-13.640625-5.535156-10.710938-17.109375-17.359375-29.566406-16.324219-14.515625 1.199219-26.152344 12.59375-27.664063 27.09375-.097656.960938-.152344 1.917969-.164062 2.871094h-.832032c-10.921874 0-19.808593 8.886719-19.808593 19.8125 0 10.921875 8.886719 19.808594 19.808593 19.808594h80.933594c10.921875 0 19.808594-8.886719 19.808594-19.808594 0-10.925781-8.886719-19.8125-19.808594-19.8125zm0 24.609375h-80.933594c-2.644531 0-4.796874-2.152344-4.796874-4.796875s2.152343-4.796875 4.796874-4.796875h9.496094c2.410156 0 4.671875-1.15625 6.085938-3.109375 1.410156-1.953125 1.796875-4.464844 1.042968-6.753906-.691406-2.085938-.921874-4.261719-.695312-6.46875.753906-7.203125 6.757812-13.089844 13.96875-13.683594 7.4375-.632813 14.234375 4.136719 16.167969 11.296875 1.078125 3.984375 5.167969 6.351562 9.160156 5.300781.644531-.171875 1.246094-.253906 1.832031-.253906 3.75 0 6.886719 2.933594 7.144532 6.675781.269531 3.941406 3.542968 6.996094 7.488281 6.996094h9.238281c2.644531 0 4.796875 2.152344 4.796875 4.796875s-2.148437 4.796875-4.792969 4.796875zm0 0"/><path d="m100.742188 137.964844c10.925781 0 19.8125-8.886719 19.8125-19.808594 0-10.925781-8.886719-19.8125-19.8125-19.8125h-3.398438c-3.222656-7.703125-10.65625-13.1875-19.304688-13.640625-5.539062-10.714844-17.101562-17.359375-29.566406-16.324219-14.519531 1.195313-26.152344 12.589844-27.664062 27.089844-.101563.960938-.15625 1.921875-.167969 2.875h-.828125c-10.925781 0-19.8125 8.886719-19.8125 19.8125 0 10.921875 8.886719 19.808594 19.8125 19.808594zm-85.726563-19.808594c0-2.644531 2.152344-4.796875 4.796875-4.796875h9.492188c2.410156 0 4.675781-1.15625 6.085937-3.109375 1.414063-1.953125 1.800781-4.464844 1.042969-6.753906-.6875-2.085938-.921875-4.261719-.691406-6.46875.75-7.207032 6.753906-13.089844 13.964843-13.683594 7.433594-.632812 14.234375 4.136719 16.171875 11.292969 1.074219 3.984375 5.164063 6.351562 9.15625 5.304687.644532-.171875 1.246094-.253906 1.832032-.253906 3.75 0 6.890624 2.933594 7.148437 6.675781.269531 3.9375 3.539063 6.996094 7.488281 6.996094h9.238282c2.644531 0 4.796874 2.152344 4.796874 4.796875s-2.152343 4.796875-4.796874 4.796875h-80.929688c-2.644531 0-4.796875-2.152344-4.796875-4.796875zm0 0"/></svg>